<?xml version="1.0" encoding="UTF-8" standalone="no"?>
<!-- Created with Inkscape (http://www.inkscape.org/) -->

<svg
        version="1.0"
        width="177.16534"
        height="177.16534"
        id="svg2"
        sodipodi:version="0.32"
        inkscape:version="1.4.2 (ebf0e940, 2025-05-08)"
        sodipodi:docname="realraum-logo-red.svg"
        inkscape:output_extension="org.inkscape.output.svg.inkscape"
        inkscape:export-filename="/home/equinox/realraum/git/logo/logo-aktuell.png"
        inkscape:export-xdpi="275.48813"
        inkscape:export-ydpi="275.48813"
        xml:space="preserve"
        xmlns:inkscape="http://www.inkscape.org/namespaces/inkscape"
        xmlns:sodipodi="http://sodipodi.sourceforge.net/DTD/sodipodi-0.dtd"
        xmlns="http://www.w3.org/2000/svg"
        xmlns:svg="http://www.w3.org/2000/svg"
        xmlns:rdf="http://www.w3.org/1999/02/22-rdf-syntax-ns#"
        xmlns:cc="http://creativecommons.org/ns#"
        xmlns:dc="http://purl.org/dc/elements/1.1/"><sodipodi:namedview
     inkscape:window-height="1022"
     inkscape:window-width="1680"
     inkscape:pageshadow="2"
     inkscape:pageopacity="0.0"
     guidetolerance="10.0"
     gridtolerance="10.0"
     objecttolerance="10.0"
     borderopacity="1.0"
     bordercolor="#666666"
     pagecolor="#ffffff"
     id="base"
     showgrid="false"
     inkscape:zoom="1.4599062"
     inkscape:cx="227.75436"
     inkscape:cy="149.66715"
     inkscape:window-x="0"
     inkscape:window-y="28"
     inkscape:current-layer="svg2"
     inkscape:document-units="mm"
     units="mm"
     showguides="true"
     inkscape:guide-bbox="true"
     inkscape:window-maximized="0"
     showborder="false"
     inkscape:showpageshadow="false"
     inkscape:pagecheckerboard="0"
     inkscape:deskcolor="#505050" />
    <circle style="fill:white;fill-opacity:1" r="70" cx="88" cy="88"/>
    <circle style="fill:white;fill-opacity:1" r="30" cx="138" cy="25"/>
    <metadata
            id="metadata8"><rdf:RDF><cc:Work
         rdf:about=""><dc:format>image/svg+xml</dc:format><dc:type
            rdf:resource="http://purl.org/dc/dcmitype/StillImage"/><dc:title/></cc:Work></rdf:RDF></metadata>
    <defs
            id="defs4"><inkscape:perspective
       sodipodi:type="inkscape:persp3d"
       inkscape:vp_x="0 : 380.90848 : 1"
       inkscape:vp_y="0 : 1000 : 0"
       inkscape:vp_z="637.79529 : 380.90848 : 1"
       inkscape:persp3d-origin="318.89764 : 253.93899 : 1"
       id="perspective10" /></defs>
    <path
            id="path3021"
            style="fill:#761407;fill-opacity:1;stroke:none"
            d="M 87.501953,-0.0703125 C 39.129574,0.54309377 0.0625,40.011473 0.0625,88.527344 c 0,48.897876 39.698584,88.566406 88.597656,88.566406 48.899084,0 88.564464,-39.66853 88.564454,-88.566406 0,-0.382029 0.007,-0.775366 0,-1.15625 V 17.568359 C 177.03058,7.8449464 169.12043,0.00293777 159.36719,-0.0703125 H 88.660156 88.251953 c -0.24592,0 -0.503712,-0.0031524 -0.75,0 z m 67.519527,7.5683594 c 2.16176,2.8e-5 4.02302,0.4649007 5.47266,1.4707031 1.46679,0.9878439 2.31444,2.578339 2.31445,4.345703 -1e-5,1.04568 -0.27835,2.09619 -0.75195,3.126953 -0.44721,0.946994 -0.94186,1.761949 -1.5,2.408203 -0.40868,0.451679 -0.83922,0.913293 -1.2832,1.345703 1.24551,0.699346 2.2983,1.58099 3.0957,2.689454 h 0.0312 0.002 v 0.002 0.002 c 10e-4,0.01201 -0.003,0.04462 -0.002,0.05664 v 0.002 c 0.94249,1.267999 1.40819,2.782002 1.4082,4.410156 -1e-5,3.007682 -1.24711,5.537226 -3.5957,7.222656 -2.25967,1.640894 -5.04133,2.523434 -8.22461,2.626953 0,0 -0.0266,-9.69e-4 -0.0312,0 -0.78577,-2e-6 -1.56111,-0.395995 -2.0957,-0.96875 -0.42275,-0.455245 -0.81445,-0.9508 -0.81445,-1.689453 0,-0.340264 0.0139,-0.68017 0.0937,-1 l 0.25196,-0.875 0.875,-0.03125 c 2.74874,-0.09239 4.69043,-0.691336 5.84765,-1.595703 1.15724,-0.904367 1.68946,-2.103283 1.68946,-4.003906 -1e-5,-1.857387 -0.73724,-2.954996 -2.75196,-3.845703 -0.52304,-0.235353 -0.93166,-0.447425 -1.2832,-0.6875 -0.35154,-0.240075 -0.81909,-0.443083 -0.90625,-1.314454 l -0.0312,-0.40625 0.21875,-0.34375 c 0.29378,-0.45699 0.7584,-1.049538 1.5,-1.939453 v -0.03125 c 0.71159,-0.826346 1.27055,-1.603774 1.6582,-2.314453 v -0.03125 c 0.36623,-0.636069 0.53124,-1.241176 0.53125,-1.9375 -1e-5,-0.620902 -0.15436,-0.968952 -0.5625,-1.345703 -0.35249,-0.325347 -0.91326,-0.593731 -1.93945,-0.59375 -0.17966,9e-6 -0.84595,0.109954 -1.78125,0.34375 -0.4938,0.123457 -0.88835,0.215791 -1.18945,0.28125 -0.30111,0.06546 -0.37597,0.125063 -0.78125,0.125 -0.74388,1.17e-4 -1.0209,-0.263098 -1.40821,-0.53125 l -0.0312,-0.03125 -0.0313,-0.03125 c -0.44273,-0.3689 -0.87496,-0.905431 -0.875,-1.626953 0,-0.8045604 0.51346,-1.3036493 0.96876,-1.625 0.45526,-0.3213497 0.98268,-0.5940315 1.6582,-0.8457031 1.39309,-0.5357633 2.81311,-0.812471 4.2539,-0.8125 z M 89.097656,20.195312 c 16.494814,0.139353 32.819814,6.497027 45.189454,17.386719 18.51588,16.002613 26.31221,42.582664 21.07812,66.332029 -4.5748,22.11478 -21.66142,40.55164 -42.625,48.44336 -21.755035,8.77946 -47.902944,4.57962 -66.205074,-9.94531 C 26.220465,126.88846 16.383116,99.330529 21.546875,74.361328 27.683034,44.106236 56.564289,20.370416 87.501953,20.226562 c 0.532359,-0.0085 1.06362,-0.03574 1.595703,-0.03125 z M 66.068359,109.97656 c -0.0075,0.005 -0.01404,0.0107 -0.02148,0.0156 -0.03871,0.0352 -0.25093,0.21894 -0.28125,0.27734 h -0.002 v 0.002 0.002 h 0.002 v 0.002 h 0.002 0.002 c 0.01258,-0.001 0.04133,-0.0136 0.05469,-0.0156 0.02082,-0.003 0.04789,0.008 0.06641,0.002 h 0.002 l 0.002,-0.002 h 0.002 l 0.002,-0.002 0.002,-0.002 v -0.002 c 0.04674,-0.0542 0.08105,-0.11844 0.121093,-0.17774 0.01688,-0.033 0.03242,-0.0659 0.04687,-0.0996 z"/>
    <text
            xml:space="preserve"
            style="font-style:normal;font-weight:normal;line-height:0%;font-family:sans-serif;letter-spacing:0px;word-spacing:0px;fill:#000000;fill-opacity:1;stroke:none"
            x="78.897285"
            y="170.19858"
            id="text3529"><tspan
       sodipodi:role="line"
       id="tspan3531"
       x="78.897285"
       y="170.19858"
       style="font-style:normal;font-variant:normal;font-weight:normal;font-stretch:normal;font-size:18.7819px;line-height:1.25;font-family:'Trebuchet MS';-inkscape-font-specification:'Trebuchet MS'"> </tspan></text>
    <text
            xml:space="preserve"
            style="font-style:normal;font-weight:normal;line-height:0%;font-family:sans-serif;letter-spacing:0px;word-spacing:0px;fill:#000000;fill-opacity:1;stroke:none"
            x="89.766304"
            y="169.21729"
            id="text3537"><tspan
       sodipodi:role="line"
       id="tspan3539"
       x="89.766304"
       y="169.21729"
       style="font-size:28px;line-height:1.25;font-family:sans-serif"> </tspan></text>
    <path
            sodipodi:type="star"
            style="fill:#761407;fill-opacity:1"
            id="path5"
            inkscape:flatsided="true"
            sodipodi:sides="3"
            sodipodi:cx="54.616577"
            sodipodi:cy="47.168861"
            sodipodi:r1="53.088596"
            sodipodi:r2="26.544296"
            sodipodi:arg1="2.0943951"
            sodipodi:arg2="3.1415927"
            inkscape:rounded="0.12"
            inkscape:randomized="0"
            d="m 28.072279,93.144935 c -9.555947,-5.517129 -9.555947,-86.4350178 0,-91.9521466 9.555947,-5.5171288 79.632891,34.9418156 79.632891,45.9760726 0,11.034258 -70.076944,51.493202 -79.632891,45.976074 z"
            inkscape:transform-center-x="-10.827792"
            transform="matrix(0.81582812,0,0,0.81582812,40.732297,51.700583)"/>
</svg>
